<svg xmlns="http://www.w3.org/2000/svg" version="1.1" xmlns:xlink="http://www.w3.org/1999/xlink" xmlns:svgjs="http://svgjs.dev/svgjs" width="1440" height="560" preserveAspectRatio="none" viewBox="0 0 1440 560"><g mask="url(&quot;#SvgjsMask1429&quot;)" fill="none"><rect width="1440" height="560" x="0" y="0" fill="url(&quot;#SvgjsLinearGradient1430&quot;)"></rect><path d="M759.656,591.217C787.698,593.296,818.217,585.208,832.271,560.853C846.321,536.505,836.445,507.053,822.207,482.814C808.202,458.972,787.285,436.128,759.656,437.234C733.205,438.293,716.897,463.743,705.217,487.499C695.155,507.964,692.973,531.116,703.571,551.309C715,573.084,735.131,589.398,759.656,591.217" fill="rgba(28, 83, 142, 0.4)" class="triangle-float3"></path><path d="M826.9036787328744 276.25759958047684L909.9901427772644 148.31566463128058 698.9617437836781 193.1711355360868z" fill="rgba(28, 83, 142, 0.4)" class="triangle-float1"></path><path d="M629.932063774534 439.87405902964184L759.8763667288281 527.5225980874657 847.524905786652 397.5782951331714 717.5806028323577 309.92975607534765z" fill="rgba(28, 83, 142, 0.4)" class="triangle-float2"></path><path d="M1348.737,235.302C1375.963,234.094,1395.822,212.631,1409.332,188.962C1422.696,165.55,1431.255,137.463,1417.976,114.002C1404.546,90.274,1376.001,81.692,1348.737,81.905C1321.904,82.115,1295.589,92.327,1281.348,115.07C1266.221,139.228,1264.123,169.92,1278.059,194.784C1292.29,220.174,1319.66,236.592,1348.737,235.302" fill="rgba(28, 83, 142, 0.4)" class="triangle-float2"></path><path d="M481.2663323575979 405.4994499953041L381.65473763551023 389.7225233154117 407.79514497671545 547.0283787384893z" fill="rgba(28, 83, 142, 0.4)" class="triangle-float2"></path><path d="M97.66585035608253 371.1834532169259L127.28830932921767 474.48924450192186 230.5941006142136 444.8667855287867 200.97164164107846 341.5609942437908z" fill="rgba(28, 83, 142, 0.4)" class="triangle-float3"></path><path d="M848.584,511.174C887.313,513.67,930.787,506.8,950.401,473.312C970.152,439.591,954.348,398.581,934.116,365.146C914.782,333.193,885.931,305.208,848.584,305.045C811.007,304.881,779.087,331.056,761.75,364.394C745.717,395.223,749.525,431.597,767.218,461.504C784.559,490.817,814.597,508.983,848.584,511.174" fill="rgba(28, 83, 142, 0.4)" class="triangle-float2"></path><path d="M1200.462,698.005C1260.37,701.822,1311.169,657.669,1340.645,605.375C1369.544,554.104,1374.625,491.846,1345.488,440.709C1316.076,389.09,1259.868,360.011,1200.462,359.346C1139.814,358.667,1076.322,382.9,1049.701,437.398C1025.133,487.694,1060.111,540.835,1088.141,589.288C1116.106,637.629,1144.728,694.454,1200.462,698.005" fill="rgba(28, 83, 142, 0.4)" class="triangle-float2"></path><path d="M182.618,669.352C226.455,668.484,274.753,664.427,297.868,627.169C321.904,588.425,309.476,540.018,287.711,499.954C264.667,457.536,230.833,417.383,182.618,415.027C130.982,412.504,83.666,443.805,58.093,488.735C32.791,533.188,30.145,589.787,59.178,631.898C85.337,669.84,136.541,670.265,182.618,669.352" fill="rgba(28, 83, 142, 0.4)" class="triangle-float2"></path><path d="M141.644,619.134C169.428,618.815,197.041,606.957,210.257,582.515C222.954,559.033,215.982,530.773,201.571,508.302C188.397,487.76,166.039,474.915,141.644,475.528C118.253,476.115,99.566,491.635,86.712,511.186C72.035,533.508,58.126,560.315,70.242,584.125C83.127,609.446,113.235,619.461,141.644,619.134" fill="rgba(28, 83, 142, 0.4)" class="triangle-float1"></path><path d="M180.63965691336745 112.65453753882039L164.0030459514219 7.61510987877746 58.96361829137899 24.25172084072298 75.60022925332451 129.29114850076593z" fill="rgba(28, 83, 142, 0.4)" class="triangle-float3"></path><path d="M1409.7715397314487 589.9398075546329L1407.911583341945 483.38297736508275 1301.354753152395 485.24293375458643 1303.2147095418986 591.7997639441365z" fill="rgba(28, 83, 142, 0.4)" class="triangle-float3"></path><path d="M52.519,413.171C82.576,412.629,114.781,407.741,130.796,382.3C147.674,355.489,145.141,320.152,127.744,293.675C111.818,269.438,81.516,262.69,52.519,263.172C24.557,263.637,-2.723,273.012,-18.492,296.108C-36.613,322.649,-47.475,357.738,-30.807,385.215C-14.522,412.062,21.124,413.737,52.519,413.171" fill="rgba(28, 83, 142, 0.4)" class="triangle-float1"></path><path d="M1084.517,351.215C1114.792,352.691,1142.112,334.813,1158.169,309.104C1175.335,281.619,1183.665,246.754,1167.187,218.851C1150.916,191.298,1116.433,182.085,1084.517,184.384C1056.529,186.4,1033.257,204.611,1020.184,229.439C1008.02,252.54,1010.137,279.398,1022.332,302.483C1035.517,327.44,1056.324,349.841,1084.517,351.215" fill="rgba(28, 83, 142, 0.4)" class="triangle-float1"></path><path d="M1262.8169910754546 535.5281142233176L1303.295075785984 417.971220299515 1185.7381818621811 377.49313558898564 1145.260097151652 495.0500295127883z" fill="rgba(28, 83, 142, 0.4)" class="triangle-float3"></path><path d="M236.03410259960773 463.1162931812398L145.16710954737678 338.04860677656944 20.0994231427064 428.9155998288004 110.96641619493735 553.9832862334708z" fill="rgba(28, 83, 142, 0.4)" class="triangle-float3"></path></g><defs><mask id="SvgjsMask1429"><rect width="1440" height="560" fill="#ffffff"></rect></mask><linearGradient x1="100%" y1="50%" x2="0%" y2="50%" gradientUnits="userSpaceOnUse" id="SvgjsLinearGradient1430"><stop stop-color="rgba(139, 204, 129, 1)" offset="0.38"></stop><stop stop-color="rgba(139, 204, 129, 1)" offset="0.51"></stop><stop stop-color="rgba(239, 255, 132, 1)" offset="0.57"></stop><stop stop-color="rgba(239, 255, 132, 1)" offset="0.61"></stop><stop stop-color="rgba(239, 255, 132, 1)" offset="0.85"></stop></linearGradient><style>
                @keyframes float1 {
                    0%{transform: translate(0, 0)}
                    50%{transform: translate(-10px, 0)}
                    100%{transform: translate(0, 0)}
                }

                .triangle-float1 {
                    animation: float1 5s infinite;
                }

                @keyframes float2 {
                    0%{transform: translate(0, 0)}
                    50%{transform: translate(-5px, -5px)}
                    100%{transform: translate(0, 0)}
                }

                .triangle-float2 {
                    animation: float2 4s infinite;
                }

                @keyframes float3 {
                    0%{transform: translate(0, 0)}
                    50%{transform: translate(0, -10px)}
                    100%{transform: translate(0, 0)}
                }

                .triangle-float3 {
                    animation: float3 6s infinite;
                }
            </style></defs></svg>