<svg xmlns="http://www.w3.org/2000/svg" version="1.1" xmlns:xlink="http://www.w3.org/1999/xlink" xmlns:svgjs="http://svgjs.dev/svgjs" width="1440" height="560" preserveAspectRatio="none" viewBox="0 0 1440 560"><g mask="url(&quot;#SvgjsMask1031&quot;)" fill="none"><rect width="1440" height="560" x="0" y="0" fill="url(&quot;#SvgjsLinearGradient1032&quot;)"></rect><path d="M-97.43 393.4L-97.43 393.4" stroke="rgba(84, 191, 179, 1)" stroke-width="1.5"></path><path d="M-97.43 393.4L40.93 362.51" stroke="rgba(84, 191, 179, 1)" stroke-width="1.5"></path><path d="M-96.51 549.46L-96.51 549.46" stroke="rgba(84, 191, 179, 1)" stroke-width="1.5"></path><path d="M-96.51 549.46L41.7 494.33" stroke="rgba(84, 191, 179, 1)" stroke-width="1.5"></path><path d="M-96.51 549.46L-97.43 393.4" stroke="rgba(84, 191, 179, 1)" stroke-width="1.5"></path><path d="M-96.51 549.46L-99.23 708.58" stroke="rgba(84, 191, 179, 1)" stroke-width="1.5"></path><path d="M-96.51 549.46L59.52 646.47" stroke="rgba(84, 191, 179, 1)" stroke-width="1.5"></path><path d="M-96.51 549.46L40.93 362.51" stroke="rgba(84, 191, 179, 1)" stroke-width="1.5"></path><path d="M-96.51 549.46L243.94 495.68" stroke="rgba(84, 191, 179, 1)" stroke-width="1.5"></path><path d="M-99.23 708.58L-99.23 708.58" stroke="rgba(84, 191, 179, 1)" stroke-width="1.5"></path><path d="M-99.23 708.58L59.52 646.47" stroke="rgba(84, 191, 179, 1)" stroke-width="1.5"></path><path d="M-99.23 708.58L41.7 494.33" stroke="rgba(84, 191, 179, 1)" stroke-width="1.5"></path><path d="M40.93 362.51L40.93 362.51" stroke="rgba(84, 191, 179, 1)" stroke-width="1.5"></path><path d="M40.93 362.51L41.7 494.33" stroke="rgba(84, 191, 179, 1)" stroke-width="1.5"></path><path d="M40.93 362.51L243.94 495.68" stroke="rgba(84, 191, 179, 1)" stroke-width="1.5"></path><path d="M41.7 494.33L41.7 494.33" stroke="rgba(84, 191, 179, 1)" stroke-width="1.5"></path><path d="M59.52 646.47L59.52 646.47" stroke="rgba(84, 191, 179, 1)" stroke-width="1.5"></path><path d="M59.52 646.47L41.7 494.33" stroke="rgba(84, 191, 179, 1)" stroke-width="1.5"></path><path d="M59.52 646.47L222.36 709.12" stroke="rgba(84, 191, 179, 1)" stroke-width="1.5"></path><path d="M59.52 646.47L243.94 495.68" stroke="rgba(84, 191, 179, 1)" stroke-width="1.5"></path><path d="M243.94 495.68L243.94 495.68" stroke="rgba(84, 191, 179, 1)" stroke-width="1.5"></path><path d="M243.94 495.68L363.67 550.36" stroke="rgba(84, 191, 179, 1)" stroke-width="1.5"></path><path d="M243.94 495.68L350.72 359.47" stroke="rgba(84, 191, 179, 1)" stroke-width="1.5"></path><path d="M243.94 495.68L41.7 494.33" stroke="rgba(84, 191, 179, 1)" stroke-width="1.5"></path><path d="M243.94 495.68L222.36 709.12" stroke="rgba(84, 191, 179, 1)" stroke-width="1.5"></path><path d="M222.36 709.12L222.36 709.12" stroke="rgba(84, 191, 179, 1)" stroke-width="1.5"></path><path d="M222.36 709.12L380.14 691.17" stroke="rgba(84, 191, 179, 1)" stroke-width="1.5"></path><path d="M222.36 709.12L363.67 550.36" stroke="rgba(84, 191, 179, 1)" stroke-width="1.5"></path><path d="M350.72 359.47L350.72 359.47" stroke="rgba(84, 191, 179, 1)" stroke-width="1.5"></path><path d="M350.72 359.47L523.78 384.32" stroke="rgba(84, 191, 179, 1)" stroke-width="1.5"></path><path d="M350.72 359.47L363.67 550.36" stroke="rgba(84, 191, 179, 1)" stroke-width="1.5"></path><path d="M350.72 359.47L502.19 517.52" stroke="rgba(84, 191, 179, 1)" stroke-width="1.5"></path><path d="M350.72 359.47L40.93 362.51" stroke="rgba(84, 191, 179, 1)" stroke-width="1.5"></path><path d="M350.72 359.47L380.14 691.17" stroke="rgba(84, 191, 179, 1)" stroke-width="1.5"></path><path d="M363.67 550.36L363.67 550.36" stroke="rgba(84, 191, 179, 1)" stroke-width="1.5"></path><path d="M363.67 550.36L380.14 691.17" stroke="rgba(84, 191, 179, 1)" stroke-width="1.5"></path><path d="M363.67 550.36L502.19 517.52" stroke="rgba(84, 191, 179, 1)" stroke-width="1.5"></path><path d="M380.14 691.17L380.14 691.17" stroke="rgba(84, 191, 179, 1)" stroke-width="1.5"></path><path d="M380.14 691.17L502.19 517.52" stroke="rgba(84, 191, 179, 1)" stroke-width="1.5"></path><path d="M380.14 691.17L243.94 495.68" stroke="rgba(84, 191, 179, 1)" stroke-width="1.5"></path><path d="M380.14 691.17L682.15 655.99" stroke="rgba(84, 191, 179, 1)" stroke-width="1.5"></path><path d="M523.78 384.32L523.78 384.32" stroke="rgba(84, 191, 179, 1)" stroke-width="1.5"></path><path d="M523.78 384.32L502.19 517.52" stroke="rgba(84, 191, 179, 1)" stroke-width="1.5"></path><path d="M523.78 384.32L704.4 249.56" stroke="rgba(84, 191, 179, 1)" stroke-width="1.5"></path><path d="M523.78 384.32L686.29 545.35" stroke="rgba(84, 191, 179, 1)" stroke-width="1.5"></path><path d="M502.19 517.52L502.19 517.52" stroke="rgba(84, 191, 179, 1)" stroke-width="1.5"></path><path d="M502.19 517.52L686.29 545.35" stroke="rgba(84, 191, 179, 1)" stroke-width="1.5"></path><path d="M502.19 517.52L682.15 655.99" stroke="rgba(84, 191, 179, 1)" stroke-width="1.5"></path><path d="M704.4 249.56L704.4 249.56" stroke="rgba(84, 191, 179, 1)" stroke-width="1.5"></path><path d="M704.4 249.56L846 239.71" stroke="rgba(84, 191, 179, 1)" stroke-width="1.5"></path><path d="M704.4 249.56L853.21 369.29" stroke="rgba(84, 191, 179, 1)" stroke-width="1.5"></path><path d="M704.4 249.56L964.41 259.84" stroke="rgba(84, 191, 179, 1)" stroke-width="1.5"></path><path d="M686.29 545.35L686.29 545.35" stroke="rgba(84, 191, 179, 1)" stroke-width="1.5"></path><path d="M686.29 545.35L682.15 655.99" stroke="rgba(84, 191, 179, 1)" stroke-width="1.5"></path><path d="M686.29 545.35L818.13 514.32" stroke="rgba(84, 191, 179, 1)" stroke-width="1.5"></path><path d="M686.29 545.35L791.77 709.93" stroke="rgba(84, 191, 179, 1)" stroke-width="1.5"></path><path d="M686.29 545.35L853.21 369.29" stroke="rgba(84, 191, 179, 1)" stroke-width="1.5"></path><path d="M682.15 655.99L682.15 655.99" stroke="rgba(84, 191, 179, 1)" stroke-width="1.5"></path><path d="M682.15 655.99L791.77 709.93" stroke="rgba(84, 191, 179, 1)" stroke-width="1.5"></path><path d="M682.15 655.99L818.13 514.32" stroke="rgba(84, 191, 179, 1)" stroke-width="1.5"></path><path d="M846 239.71L846 239.71" stroke="rgba(84, 191, 179, 1)" stroke-width="1.5"></path><path d="M846 239.71L964.41 259.84" stroke="rgba(84, 191, 179, 1)" stroke-width="1.5"></path><path d="M846 239.71L853.21 369.29" stroke="rgba(84, 191, 179, 1)" stroke-width="1.5"></path><path d="M853.21 369.29L853.21 369.29" stroke="rgba(84, 191, 179, 1)" stroke-width="1.5"></path><path d="M853.21 369.29L956.66 347.68" stroke="rgba(84, 191, 179, 1)" stroke-width="1.5"></path><path d="M818.13 514.32L818.13 514.32" stroke="rgba(84, 191, 179, 1)" stroke-width="1.5"></path><path d="M818.13 514.32L853.21 369.29" stroke="rgba(84, 191, 179, 1)" stroke-width="1.5"></path><path d="M818.13 514.32L977.75 489.42" stroke="rgba(84, 191, 179, 1)" stroke-width="1.5"></path><path d="M818.13 514.32L791.77 709.93" stroke="rgba(84, 191, 179, 1)" stroke-width="1.5"></path><path d="M818.13 514.32L956.66 347.68" stroke="rgba(84, 191, 179, 1)" stroke-width="1.5"></path><path d="M791.77 709.93L791.77 709.93" stroke="rgba(84, 191, 179, 1)" stroke-width="1.5"></path><path d="M791.77 709.93L1000.42 680.81" stroke="rgba(84, 191, 179, 1)" stroke-width="1.5"></path><path d="M991.35 -64.34L991.35 -64.34" stroke="rgba(84, 191, 179, 1)" stroke-width="1.5"></path><path d="M991.35 -64.34L1012.4 55.24" stroke="rgba(84, 191, 179, 1)" stroke-width="1.5"></path><path d="M991.35 -64.34L1157.6 -105.42" stroke="rgba(84, 191, 179, 1)" stroke-width="1.5"></path><path d="M991.35 -64.34L1152.99 76.31" stroke="rgba(84, 191, 179, 1)" stroke-width="1.5"></path><path d="M991.35 -64.34L1274.31 80.8" stroke="rgba(84, 191, 179, 1)" stroke-width="1.5"></path><path d="M991.35 -64.34L964.41 259.84" stroke="rgba(84, 191, 179, 1)" stroke-width="1.5"></path><path d="M991.35 -64.34L1125.9 232.31" stroke="rgba(84, 191, 179, 1)" stroke-width="1.5"></path><path d="M1012.4 55.24L1012.4 55.24" stroke="rgba(84, 191, 179, 1)" stroke-width="1.5"></path><path d="M1012.4 55.24L1152.99 76.31" stroke="rgba(84, 191, 179, 1)" stroke-width="1.5"></path><path d="M1012.4 55.24L964.41 259.84" stroke="rgba(84, 191, 179, 1)" stroke-width="1.5"></path><path d="M964.41 259.84L964.41 259.84" stroke="rgba(84, 191, 179, 1)" stroke-width="1.5"></path><path d="M964.41 259.84L956.66 347.68" stroke="rgba(84, 191, 179, 1)" stroke-width="1.5"></path><path d="M964.41 259.84L853.21 369.29" stroke="rgba(84, 191, 179, 1)" stroke-width="1.5"></path><path d="M956.66 347.68L956.66 347.68" stroke="rgba(84, 191, 179, 1)" stroke-width="1.5"></path><path d="M977.75 489.42L977.75 489.42" stroke="rgba(84, 191, 179, 1)" stroke-width="1.5"></path><path d="M977.75 489.42L1097.68 495.4" stroke="rgba(84, 191, 179, 1)" stroke-width="1.5"></path><path d="M977.75 489.42L956.66 347.68" stroke="rgba(84, 191, 179, 1)" stroke-width="1.5"></path><path d="M977.75 489.42L1096.08 364.14" stroke="rgba(84, 191, 179, 1)" stroke-width="1.5"></path><path d="M1000.42 680.81L1000.42 680.81" stroke="rgba(84, 191, 179, 1)" stroke-width="1.5"></path><path d="M1000.42 680.81L1129.7 703.38" stroke="rgba(84, 191, 179, 1)" stroke-width="1.5"></path><path d="M1000.42 680.81L977.75 489.42" stroke="rgba(84, 191, 179, 1)" stroke-width="1.5"></path><path d="M1000.42 680.81L1097.68 495.4" stroke="rgba(84, 191, 179, 1)" stroke-width="1.5"></path><path d="M1000.42 680.81L818.13 514.32" stroke="rgba(84, 191, 179, 1)" stroke-width="1.5"></path><path d="M1000.42 680.81L1251 668.47" stroke="rgba(84, 191, 179, 1)" stroke-width="1.5"></path><path d="M1157.6 -105.42L1157.6 -105.42" stroke="rgba(84, 191, 179, 1)" stroke-width="1.5"></path><path d="M1157.6 -105.42L1152.99 76.31" stroke="rgba(84, 191, 179, 1)" stroke-width="1.5"></path><path d="M1157.6 -105.42L1012.4 55.24" stroke="rgba(84, 191, 179, 1)" stroke-width="1.5"></path><path d="M1157.6 -105.42L1274.31 80.8" stroke="rgba(84, 191, 179, 1)" stroke-width="1.5"></path><path d="M1157.6 -105.42L1417.42 -95.94" stroke="rgba(84, 191, 179, 1)" stroke-width="1.5"></path><path d="M1157.6 -105.42L1457.31 43.75" stroke="rgba(84, 191, 179, 1)" stroke-width="1.5"></path><path d="M1152.99 76.31L1152.99 76.31" stroke="rgba(84, 191, 179, 1)" stroke-width="1.5"></path><path d="M1152.99 76.31L1274.31 80.8" stroke="rgba(84, 191, 179, 1)" stroke-width="1.5"></path><path d="M1152.99 76.31L1125.9 232.31" stroke="rgba(84, 191, 179, 1)" stroke-width="1.5"></path><path d="M1152.99 76.31L1292.66 215.93" stroke="rgba(84, 191, 179, 1)" stroke-width="1.5"></path><path d="M1125.9 232.31L1125.9 232.31" stroke="rgba(84, 191, 179, 1)" stroke-width="1.5"></path><path d="M1125.9 232.31L1096.08 364.14" stroke="rgba(84, 191, 179, 1)" stroke-width="1.5"></path><path d="M1125.9 232.31L964.41 259.84" stroke="rgba(84, 191, 179, 1)" stroke-width="1.5"></path><path d="M1125.9 232.31L1292.66 215.93" stroke="rgba(84, 191, 179, 1)" stroke-width="1.5"></path><path d="M1125.9 232.31L956.66 347.68" stroke="rgba(84, 191, 179, 1)" stroke-width="1.5"></path><path d="M1125.9 232.31L1012.4 55.24" stroke="rgba(84, 191, 179, 1)" stroke-width="1.5"></path><path d="M1096.08 364.14L1096.08 364.14" stroke="rgba(84, 191, 179, 1)" stroke-width="1.5"></path><path d="M1096.08 364.14L1097.68 495.4" stroke="rgba(84, 191, 179, 1)" stroke-width="1.5"></path><path d="M1096.08 364.14L956.66 347.68" stroke="rgba(84, 191, 179, 1)" stroke-width="1.5"></path><path d="M1096.08 364.14L964.41 259.84" stroke="rgba(84, 191, 179, 1)" stroke-width="1.5"></path><path d="M1096.08 364.14L1297.96 362.65" stroke="rgba(84, 191, 179, 1)" stroke-width="1.5"></path><path d="M1097.68 495.4L1097.68 495.4" stroke="rgba(84, 191, 179, 1)" stroke-width="1.5"></path><path d="M1097.68 495.4L1249.22 557.04" stroke="rgba(84, 191, 179, 1)" stroke-width="1.5"></path><path d="M1129.7 703.38L1129.7 703.38" stroke="rgba(84, 191, 179, 1)" stroke-width="1.5"></path><path d="M1129.7 703.38L1251 668.47" stroke="rgba(84, 191, 179, 1)" stroke-width="1.5"></path><path d="M1274.31 80.8L1274.31 80.8" stroke="rgba(84, 191, 179, 1)" stroke-width="1.5"></path><path d="M1274.31 80.8L1292.66 215.93" stroke="rgba(84, 191, 179, 1)" stroke-width="1.5"></path><path d="M1274.31 80.8L1457.31 43.75" stroke="rgba(84, 191, 179, 1)" stroke-width="1.5"></path><path d="M1274.31 80.8L1395.95 238.37" stroke="rgba(84, 191, 179, 1)" stroke-width="1.5"></path><path d="M1274.31 80.8L1125.9 232.31" stroke="rgba(84, 191, 179, 1)" stroke-width="1.5"></path><path d="M1292.66 215.93L1292.66 215.93" stroke="rgba(84, 191, 179, 1)" stroke-width="1.5"></path><path d="M1292.66 215.93L1395.95 238.37" stroke="rgba(84, 191, 179, 1)" stroke-width="1.5"></path><path d="M1292.66 215.93L1297.96 362.65" stroke="rgba(84, 191, 179, 1)" stroke-width="1.5"></path><path d="M1297.96 362.65L1297.96 362.65" stroke="rgba(84, 191, 179, 1)" stroke-width="1.5"></path><path d="M1297.96 362.65L1395.95 238.37" stroke="rgba(84, 191, 179, 1)" stroke-width="1.5"></path><path d="M1297.96 362.65L1457.36 382.67" stroke="rgba(84, 191, 179, 1)" stroke-width="1.5"></path><path d="M1297.96 362.65L1249.22 557.04" stroke="rgba(84, 191, 179, 1)" stroke-width="1.5"></path><path d="M1297.96 362.65L1125.9 232.31" stroke="rgba(84, 191, 179, 1)" stroke-width="1.5"></path><path d="M1249.22 557.04L1249.22 557.04" stroke="rgba(84, 191, 179, 1)" stroke-width="1.5"></path><path d="M1249.22 557.04L1251 668.47" stroke="rgba(84, 191, 179, 1)" stroke-width="1.5"></path><path d="M1249.22 557.04L1412.31 646.46" stroke="rgba(84, 191, 179, 1)" stroke-width="1.5"></path><path d="M1249.22 557.04L1129.7 703.38" stroke="rgba(84, 191, 179, 1)" stroke-width="1.5"></path><path d="M1249.22 557.04L1443.06 557.55" stroke="rgba(84, 191, 179, 1)" stroke-width="1.5"></path><path d="M1251 668.47L1251 668.47" stroke="rgba(84, 191, 179, 1)" stroke-width="1.5"></path><path d="M1417.42 -95.94L1417.42 -95.94" stroke="rgba(84, 191, 179, 1)" stroke-width="1.5"></path><path d="M1417.42 -95.94L1544.05 -58.99" stroke="rgba(84, 191, 179, 1)" stroke-width="1.5"></path><path d="M1417.42 -95.94L1457.31 43.75" stroke="rgba(84, 191, 179, 1)" stroke-width="1.5"></path><path d="M1417.42 -95.94L1592.41 42.04" stroke="rgba(84, 191, 179, 1)" stroke-width="1.5"></path><path d="M1417.42 -95.94L1274.31 80.8" stroke="rgba(84, 191, 179, 1)" stroke-width="1.5"></path><path d="M1417.42 -95.94L1152.99 76.31" stroke="rgba(84, 191, 179, 1)" stroke-width="1.5"></path><path d="M1457.31 43.75L1457.31 43.75" stroke="rgba(84, 191, 179, 1)" stroke-width="1.5"></path><path d="M1457.31 43.75L1544.05 -58.99" stroke="rgba(84, 191, 179, 1)" stroke-width="1.5"></path><path d="M1457.31 43.75L1592.41 42.04" stroke="rgba(84, 191, 179, 1)" stroke-width="1.5"></path><path d="M1395.95 238.37L1395.95 238.37" stroke="rgba(84, 191, 179, 1)" stroke-width="1.5"></path><path d="M1395.95 238.37L1457.36 382.67" stroke="rgba(84, 191, 179, 1)" stroke-width="1.5"></path><path d="M1395.95 238.37L1568.97 252.49" stroke="rgba(84, 191, 179, 1)" stroke-width="1.5"></path><path d="M1457.36 382.67L1457.36 382.67" stroke="rgba(84, 191, 179, 1)" stroke-width="1.5"></path><path d="M1457.36 382.67L1605.61 363.69" stroke="rgba(84, 191, 179, 1)" stroke-width="1.5"></path><path d="M1457.36 382.67L1568.97 252.49" stroke="rgba(84, 191, 179, 1)" stroke-width="1.5"></path><path d="M1457.36 382.67L1443.06 557.55" stroke="rgba(84, 191, 179, 1)" stroke-width="1.5"></path><path d="M1457.36 382.67L1546.94 540.12" stroke="rgba(84, 191, 179, 1)" stroke-width="1.5"></path><path d="M1443.06 557.55L1443.06 557.55" stroke="rgba(84, 191, 179, 1)" stroke-width="1.5"></path><path d="M1443.06 557.55L1412.31 646.46" stroke="rgba(84, 191, 179, 1)" stroke-width="1.5"></path><path d="M1443.06 557.55L1546.94 540.12" stroke="rgba(84, 191, 179, 1)" stroke-width="1.5"></path><path d="M1443.06 557.55L1557.63 649.63" stroke="rgba(84, 191, 179, 1)" stroke-width="1.5"></path><path d="M1412.31 646.46L1412.31 646.46" stroke="rgba(84, 191, 179, 1)" stroke-width="1.5"></path><path d="M1412.31 646.46L1557.63 649.63" stroke="rgba(84, 191, 179, 1)" stroke-width="1.5"></path><path d="M1412.31 646.46L1251 668.47" stroke="rgba(84, 191, 179, 1)" stroke-width="1.5"></path><path d="M1412.31 646.46L1546.94 540.12" stroke="rgba(84, 191, 179, 1)" stroke-width="1.5"></path><path d="M1544.05 -58.99L1544.05 -58.99" stroke="rgba(84, 191, 179, 1)" stroke-width="1.5"></path><path d="M1544.05 -58.99L1592.41 42.04" stroke="rgba(84, 191, 179, 1)" stroke-width="1.5"></path><path d="M1592.41 42.04L1592.41 42.04" stroke="rgba(84, 191, 179, 1)" stroke-width="1.5"></path><path d="M1592.41 42.04L1568.97 252.49" stroke="rgba(84, 191, 179, 1)" stroke-width="1.5"></path><path d="M1568.97 252.49L1568.97 252.49" stroke="rgba(84, 191, 179, 1)" stroke-width="1.5"></path><path d="M1568.97 252.49L1605.61 363.69" stroke="rgba(84, 191, 179, 1)" stroke-width="1.5"></path><path d="M1568.97 252.49L1457.31 43.75" stroke="rgba(84, 191, 179, 1)" stroke-width="1.5"></path><path d="M1605.61 363.69L1605.61 363.69" stroke="rgba(84, 191, 179, 1)" stroke-width="1.5"></path><path d="M1546.94 540.12L1546.94 540.12" stroke="rgba(84, 191, 179, 1)" stroke-width="1.5"></path><path d="M1546.94 540.12L1557.63 649.63" stroke="rgba(84, 191, 179, 1)" stroke-width="1.5"></path><path d="M1557.63 649.63L1557.63 649.63" stroke="rgba(84, 191, 179, 1)" stroke-width="1.5"></path><path d="M1557.63 649.63L1457.36 382.67" stroke="rgba(84, 191, 179, 1)" stroke-width="1.5"></path><path d="M1557.63 649.63L1605.61 363.69" stroke="rgba(84, 191, 179, 1)" stroke-width="1.5"></path><circle r="5" cx="-97.43" cy="393.4" fill="rgba(84, 191, 179, 1)"></circle><circle r="5" cx="-96.51" cy="549.46" fill="rgba(84, 191, 179, 1)"></circle><circle r="5" cx="-99.23" cy="708.58" fill="rgba(84, 191, 179, 1)"></circle><circle r="5" cx="40.93" cy="362.51" fill="rgba(84, 191, 179, 1)"></circle><circle r="5" cx="41.7" cy="494.33" fill="rgba(84, 191, 179, 1)"></circle><circle r="5" cx="59.52" cy="646.47" fill="rgba(84, 191, 179, 1)"></circle><circle r="5" cx="243.94" cy="495.68" fill="rgba(84, 191, 179, 1)"></circle><circle r="5" cx="222.36" cy="709.12" fill="rgba(84, 191, 179, 1)"></circle><circle r="5" cx="350.72" cy="359.47" fill="rgba(84, 191, 179, 1)"></circle><circle r="5" cx="363.67" cy="550.36" fill="rgba(84, 191, 179, 1)"></circle><circle r="5" cx="380.14" cy="691.17" fill="rgba(84, 191, 179, 1)"></circle><circle r="5" cx="523.78" cy="384.32" fill="rgba(84, 191, 179, 1)"></circle><circle r="5" cx="502.19" cy="517.52" fill="rgba(84, 191, 179, 1)"></circle><circle r="5" cx="704.4" cy="249.56" fill="rgba(84, 191, 179, 1)"></circle><circle r="5" cx="686.29" cy="545.35" fill="rgba(84, 191, 179, 1)"></circle><circle r="5" cx="682.15" cy="655.99" fill="rgba(84, 191, 179, 1)"></circle><circle r="5" cx="846" cy="239.71" fill="rgba(84, 191, 179, 1)"></circle><circle r="5" cx="853.21" cy="369.29" fill="rgba(84, 191, 179, 1)"></circle><circle r="5" cx="818.13" cy="514.32" fill="rgba(84, 191, 179, 1)"></circle><circle r="5" cx="791.77" cy="709.93" fill="rgba(84, 191, 179, 1)"></circle><circle r="5" cx="991.35" cy="-64.34" fill="rgba(84, 191, 179, 1)"></circle><circle r="5" cx="1012.4" cy="55.24" fill="rgba(84, 191, 179, 1)"></circle><circle r="5" cx="964.41" cy="259.84" fill="rgba(84, 191, 179, 1)"></circle><circle r="5" cx="956.66" cy="347.68" fill="rgba(84, 191, 179, 1)"></circle><circle r="5" cx="977.75" cy="489.42" fill="rgba(84, 191, 179, 1)"></circle><circle r="5" cx="1000.42" cy="680.81" fill="rgba(84, 191, 179, 1)"></circle><circle r="5" cx="1157.6" cy="-105.42" fill="rgba(84, 191, 179, 1)"></circle><circle r="5" cx="1152.99" cy="76.31" fill="rgba(84, 191, 179, 1)"></circle><circle r="5" cx="1125.9" cy="232.31" fill="rgba(84, 191, 179, 1)"></circle><circle r="5" cx="1096.08" cy="364.14" fill="rgba(84, 191, 179, 1)"></circle><circle r="5" cx="1097.68" cy="495.4" fill="rgba(84, 191, 179, 1)"></circle><circle r="5" cx="1129.7" cy="703.38" fill="rgba(84, 191, 179, 1)"></circle><circle r="5" cx="1274.31" cy="80.8" fill="rgba(84, 191, 179, 1)"></circle><circle r="5" cx="1292.66" cy="215.93" fill="rgba(84, 191, 179, 1)"></circle><circle r="5" cx="1297.96" cy="362.65" fill="rgba(84, 191, 179, 1)"></circle><circle r="5" cx="1249.22" cy="557.04" fill="rgba(84, 191, 179, 1)"></circle><circle r="5" cx="1251" cy="668.47" fill="rgba(84, 191, 179, 1)"></circle><circle r="5" cx="1417.42" cy="-95.94" fill="rgba(84, 191, 179, 1)"></circle><circle r="5" cx="1457.31" cy="43.75" fill="rgba(84, 191, 179, 1)"></circle><circle r="5" cx="1395.95" cy="238.37" fill="rgba(84, 191, 179, 1)"></circle><circle r="5" cx="1457.36" cy="382.67" fill="rgba(84, 191, 179, 1)"></circle><circle r="5" cx="1443.06" cy="557.55" fill="rgba(84, 191, 179, 1)"></circle><circle r="5" cx="1412.31" cy="646.46" fill="rgba(84, 191, 179, 1)"></circle><circle r="5" cx="1544.05" cy="-58.99" fill="rgba(84, 191, 179, 1)"></circle><circle r="5" cx="1592.41" cy="42.04" fill="rgba(84, 191, 179, 1)"></circle><circle r="5" cx="1568.97" cy="252.49" fill="rgba(84, 191, 179, 1)"></circle><circle r="5" cx="1605.61" cy="363.69" fill="rgba(84, 191, 179, 1)"></circle><circle r="5" cx="1546.94" cy="540.12" fill="rgba(84, 191, 179, 1)"></circle><circle r="5" cx="1557.63" cy="649.63" fill="rgba(84, 191, 179, 1)"></circle><path d="M262.36 688.45L262.36 688.45" stroke="hsl(226.5, 45.5%, 70.1%)" stroke-width="1.5"></path><path d="M262.36 688.45L354.17 687.28" stroke="hsl(226.5, 45.5%, 70.1%)" stroke-width="1.5"></path><path d="M262.36 688.45L254.96 528.67" stroke="hsl(226.5, 45.5%, 70.1%)" stroke-width="1.5"></path><path d="M262.36 688.45L360.06 507.82" stroke="hsl(226.5, 45.5%, 70.1%)" stroke-width="1.5"></path><path d="M262.36 688.45L38.13 688.06" stroke="hsl(226.5, 45.5%, 70.1%)" stroke-width="1.5"></path><path d="M522.49 512.43L522.49 512.43" stroke="hsl(226.5, 45.5%, 70.1%)" stroke-width="1.5"></path><path d="M522.49 512.43L539.8 400.52" stroke="hsl(226.5, 45.5%, 70.1%)" stroke-width="1.5"></path><path d="M522.49 512.43L656.61 520.39" stroke="hsl(226.5, 45.5%, 70.1%)" stroke-width="1.5"></path><path d="M522.49 512.43L360.06 507.82" stroke="hsl(226.5, 45.5%, 70.1%)" stroke-width="1.5"></path><path d="M522.49 512.43L641.54 667.27" stroke="hsl(226.5, 45.5%, 70.1%)" stroke-width="1.5"></path><path d="M522.49 512.43L555.16 707.65" stroke="hsl(226.5, 45.5%, 70.1%)" stroke-width="1.5"></path><path d="M1006.46 360.64L1006.46 360.64" stroke="hsl(226.5, 45.5%, 70.1%)" stroke-width="1.5"></path><path d="M1006.46 360.64L1150.7 388.05" stroke="hsl(226.5, 45.5%, 70.1%)" stroke-width="1.5"></path><path d="M1006.46 360.64L1089.39 236.11" stroke="hsl(226.5, 45.5%, 70.1%)" stroke-width="1.5"></path><path d="M1006.46 360.64L939.13 548.44" stroke="hsl(226.5, 45.5%, 70.1%)" stroke-width="1.5"></path><path d="M1006.46 360.64L1112.98 549.51" stroke="hsl(226.5, 45.5%, 70.1%)" stroke-width="1.5"></path><path d="M1006.46 360.64L850.6 526.66" stroke="hsl(226.5, 45.5%, 70.1%)" stroke-width="1.5"></path><path d="M1006.46 360.64L1259.45 401.37" stroke="hsl(226.5, 45.5%, 70.1%)" stroke-width="1.5"></path><path d="M939.13 548.44L939.13 548.44" stroke="hsl(226.5, 45.5%, 70.1%)" stroke-width="1.5"></path><path d="M939.13 548.44L850.6 526.66" stroke="hsl(226.5, 45.5%, 70.1%)" stroke-width="1.5"></path><path d="M939.13 548.44L953.87 698.54" stroke="hsl(226.5, 45.5%, 70.1%)" stroke-width="1.5"></path><path d="M1575.91 705.6L1575.91 705.6" stroke="hsl(226.5, 45.5%, 70.1%)" stroke-width="1.5"></path><path d="M1575.91 705.6L1390.85 699.38" stroke="hsl(226.5, 45.5%, 70.1%)" stroke-width="1.5"></path><path d="M1575.91 705.6L1573.16 502.71" stroke="hsl(226.5, 45.5%, 70.1%)" stroke-width="1.5"></path><path d="M1575.91 705.6L1449.59 501.05" stroke="hsl(226.5, 45.5%, 70.1%)" stroke-width="1.5"></path><path d="M1575.91 705.6L1570.84 397.51" stroke="hsl(226.5, 45.5%, 70.1%)" stroke-width="1.5"></path><path d="M-98.81 528.95L-98.81 528.95" stroke="hsl(226.5, 45.5%, 70.1%)" stroke-width="1.5"></path><path d="M-98.81 528.95L-103.37 644.03" stroke="hsl(226.5, 45.5%, 70.1%)" stroke-width="1.5"></path><path d="M-98.81 528.95L66.06 507.11" stroke="hsl(226.5, 45.5%, 70.1%)" stroke-width="1.5"></path><path d="M-98.81 528.95L38.13 688.06" stroke="hsl(226.5, 45.5%, 70.1%)" stroke-width="1.5"></path><path d="M-98.81 528.95L254.96 528.67" stroke="hsl(226.5, 45.5%, 70.1%)" stroke-width="1.5"></path><path d="M-98.81 528.95L262.36 688.45" stroke="hsl(226.5, 45.5%, 70.1%)" stroke-width="1.5"></path><path d="M-98.81 528.95L360.06 507.82" stroke="hsl(226.5, 45.5%, 70.1%)" stroke-width="1.5"></path><path d="M-103.37 644.03L-103.37 644.03" stroke="hsl(226.5, 45.5%, 70.1%)" stroke-width="1.5"></path><path d="M-103.37 644.03L38.13 688.06" stroke="hsl(226.5, 45.5%, 70.1%)" stroke-width="1.5"></path><path d="M-103.37 644.03L66.06 507.11" stroke="hsl(226.5, 45.5%, 70.1%)" stroke-width="1.5"></path><path d="M66.06 507.11L66.06 507.11" stroke="hsl(226.5, 45.5%, 70.1%)" stroke-width="1.5"></path><path d="M66.06 507.11L38.13 688.06" stroke="hsl(226.5, 45.5%, 70.1%)" stroke-width="1.5"></path><path d="M66.06 507.11L254.96 528.67" stroke="hsl(226.5, 45.5%, 70.1%)" stroke-width="1.5"></path><path d="M66.06 507.11L262.36 688.45" stroke="hsl(226.5, 45.5%, 70.1%)" stroke-width="1.5"></path><path d="M38.13 688.06L38.13 688.06" stroke="hsl(226.5, 45.5%, 70.1%)" stroke-width="1.5"></path><path d="M254.96 528.67L254.96 528.67" stroke="hsl(226.5, 45.5%, 70.1%)" stroke-width="1.5"></path><path d="M254.96 528.67L360.06 507.82" stroke="hsl(226.5, 45.5%, 70.1%)" stroke-width="1.5"></path><path d="M254.96 528.67L354.17 687.28" stroke="hsl(226.5, 45.5%, 70.1%)" stroke-width="1.5"></path><path d="M254.96 528.67L522.49 512.43" stroke="hsl(226.5, 45.5%, 70.1%)" stroke-width="1.5"></path><path d="M360.06 507.82L360.06 507.82" stroke="hsl(226.5, 45.5%, 70.1%)" stroke-width="1.5"></path><path d="M354.17 687.28L354.17 687.28" stroke="hsl(226.5, 45.5%, 70.1%)" stroke-width="1.5"></path><path d="M354.17 687.28L360.06 507.82" stroke="hsl(226.5, 45.5%, 70.1%)" stroke-width="1.5"></path><path d="M354.17 687.28L555.16 707.65" stroke="hsl(226.5, 45.5%, 70.1%)" stroke-width="1.5"></path><path d="M354.17 687.28L522.49 512.43" stroke="hsl(226.5, 45.5%, 70.1%)" stroke-width="1.5"></path><path d="M539.8 400.52L539.8 400.52" stroke="hsl(226.5, 45.5%, 70.1%)" stroke-width="1.5"></path><path d="M539.8 400.52L656.61 520.39" stroke="hsl(226.5, 45.5%, 70.1%)" stroke-width="1.5"></path><path d="M539.8 400.52L360.06 507.82" stroke="hsl(226.5, 45.5%, 70.1%)" stroke-width="1.5"></path><path d="M539.8 400.52L641.54 667.27" stroke="hsl(226.5, 45.5%, 70.1%)" stroke-width="1.5"></path><path d="M539.8 400.52L555.16 707.65" stroke="hsl(226.5, 45.5%, 70.1%)" stroke-width="1.5"></path><path d="M539.8 400.52L254.96 528.67" stroke="hsl(226.5, 45.5%, 70.1%)" stroke-width="1.5"></path><path d="M555.16 707.65L555.16 707.65" stroke="hsl(226.5, 45.5%, 70.1%)" stroke-width="1.5"></path><path d="M555.16 707.65L641.54 667.27" stroke="hsl(226.5, 45.5%, 70.1%)" stroke-width="1.5"></path><path d="M656.61 520.39L656.61 520.39" stroke="hsl(226.5, 45.5%, 70.1%)" stroke-width="1.5"></path><path d="M656.61 520.39L641.54 667.27" stroke="hsl(226.5, 45.5%, 70.1%)" stroke-width="1.5"></path><path d="M656.61 520.39L850.6 526.66" stroke="hsl(226.5, 45.5%, 70.1%)" stroke-width="1.5"></path><path d="M656.61 520.39L555.16 707.65" stroke="hsl(226.5, 45.5%, 70.1%)" stroke-width="1.5"></path><path d="M656.61 520.39L842.89 670.84" stroke="hsl(226.5, 45.5%, 70.1%)" stroke-width="1.5"></path><path d="M641.54 667.27L641.54 667.27" stroke="hsl(226.5, 45.5%, 70.1%)" stroke-width="1.5"></path><path d="M641.54 667.27L842.89 670.84" stroke="hsl(226.5, 45.5%, 70.1%)" stroke-width="1.5"></path><path d="M641.54 667.27L850.6 526.66" stroke="hsl(226.5, 45.5%, 70.1%)" stroke-width="1.5"></path><path d="M850.6 526.66L850.6 526.66" stroke="hsl(226.5, 45.5%, 70.1%)" stroke-width="1.5"></path><path d="M850.6 526.66L842.89 670.84" stroke="hsl(226.5, 45.5%, 70.1%)" stroke-width="1.5"></path><path d="M850.6 526.66L953.87 698.54" stroke="hsl(226.5, 45.5%, 70.1%)" stroke-width="1.5"></path><path d="M842.89 670.84L842.89 670.84" stroke="hsl(226.5, 45.5%, 70.1%)" stroke-width="1.5"></path><path d="M842.89 670.84L953.87 698.54" stroke="hsl(226.5, 45.5%, 70.1%)" stroke-width="1.5"></path><path d="M842.89 670.84L939.13 548.44" stroke="hsl(226.5, 45.5%, 70.1%)" stroke-width="1.5"></path><path d="M842.89 670.84L1100.78 693.16" stroke="hsl(226.5, 45.5%, 70.1%)" stroke-width="1.5"></path><path d="M953.87 698.54L953.87 698.54" stroke="hsl(226.5, 45.5%, 70.1%)" stroke-width="1.5"></path><path d="M953.87 698.54L1100.78 693.16" stroke="hsl(226.5, 45.5%, 70.1%)" stroke-width="1.5"></path><path d="M1144.45 58.65L1144.45 58.65" stroke="hsl(226.5, 45.5%, 70.1%)" stroke-width="1.5"></path><path d="M1144.45 58.65L1308.93 53.91" stroke="hsl(226.5, 45.5%, 70.1%)" stroke-width="1.5"></path><path d="M1144.45 58.65L1089.39 236.11" stroke="hsl(226.5, 45.5%, 70.1%)" stroke-width="1.5"></path><path d="M1144.45 58.65L1242.97 240.98" stroke="hsl(226.5, 45.5%, 70.1%)" stroke-width="1.5"></path><path d="M1144.45 58.65L1310.66 -85.58" stroke="hsl(226.5, 45.5%, 70.1%)" stroke-width="1.5"></path><path d="M1089.39 236.11L1089.39 236.11" stroke="hsl(226.5, 45.5%, 70.1%)" stroke-width="1.5"></path><path d="M1089.39 236.11L1242.97 240.98" stroke="hsl(226.5, 45.5%, 70.1%)" stroke-width="1.5"></path><path d="M1089.39 236.11L1150.7 388.05" stroke="hsl(226.5, 45.5%, 70.1%)" stroke-width="1.5"></path><path d="M1150.7 388.05L1150.7 388.05" stroke="hsl(226.5, 45.5%, 70.1%)" stroke-width="1.5"></path><path d="M1150.7 388.05L1259.45 401.37" stroke="hsl(226.5, 45.5%, 70.1%)" stroke-width="1.5"></path><path d="M1112.98 549.51L1112.98 549.51" stroke="hsl(226.5, 45.5%, 70.1%)" stroke-width="1.5"></path><path d="M1112.98 549.51L1100.78 693.16" stroke="hsl(226.5, 45.5%, 70.1%)" stroke-width="1.5"></path><path d="M1112.98 549.51L1150.7 388.05" stroke="hsl(226.5, 45.5%, 70.1%)" stroke-width="1.5"></path><path d="M1112.98 549.51L939.13 548.44" stroke="hsl(226.5, 45.5%, 70.1%)" stroke-width="1.5"></path><path d="M1100.78 693.16L1100.78 693.16" stroke="hsl(226.5, 45.5%, 70.1%)" stroke-width="1.5"></path><path d="M1310.66 -85.58L1310.66 -85.58" stroke="hsl(226.5, 45.5%, 70.1%)" stroke-width="1.5"></path><path d="M1310.66 -85.58L1308.93 53.91" stroke="hsl(226.5, 45.5%, 70.1%)" stroke-width="1.5"></path><path d="M1310.66 -85.58L1451.1 -109.13" stroke="hsl(226.5, 45.5%, 70.1%)" stroke-width="1.5"></path><path d="M1310.66 -85.58L1430.65 92.62" stroke="hsl(226.5, 45.5%, 70.1%)" stroke-width="1.5"></path><path d="M1308.93 53.91L1308.93 53.91" stroke="hsl(226.5, 45.5%, 70.1%)" stroke-width="1.5"></path><path d="M1308.93 53.91L1430.65 92.62" stroke="hsl(226.5, 45.5%, 70.1%)" stroke-width="1.5"></path><path d="M1308.93 53.91L1242.97 240.98" stroke="hsl(226.5, 45.5%, 70.1%)" stroke-width="1.5"></path><path d="M1308.93 53.91L1426.51 228.19" stroke="hsl(226.5, 45.5%, 70.1%)" stroke-width="1.5"></path><path d="M1308.93 53.91L1451.1 -109.13" stroke="hsl(226.5, 45.5%, 70.1%)" stroke-width="1.5"></path><path d="M1242.97 240.98L1242.97 240.98" stroke="hsl(226.5, 45.5%, 70.1%)" stroke-width="1.5"></path><path d="M1242.97 240.98L1259.45 401.37" stroke="hsl(226.5, 45.5%, 70.1%)" stroke-width="1.5"></path><path d="M1242.97 240.98L1150.7 388.05" stroke="hsl(226.5, 45.5%, 70.1%)" stroke-width="1.5"></path><path d="M1242.97 240.98L1426.51 228.19" stroke="hsl(226.5, 45.5%, 70.1%)" stroke-width="1.5"></path><path d="M1259.45 401.37L1259.45 401.37" stroke="hsl(226.5, 45.5%, 70.1%)" stroke-width="1.5"></path><path d="M1259.45 401.37L1292.18 499.78" stroke="hsl(226.5, 45.5%, 70.1%)" stroke-width="1.5"></path><path d="M1259.45 401.37L1398.99 398.73" stroke="hsl(226.5, 45.5%, 70.1%)" stroke-width="1.5"></path><path d="M1292.18 499.78L1292.18 499.78" stroke="hsl(226.5, 45.5%, 70.1%)" stroke-width="1.5"></path><path d="M1292.18 499.78L1398.99 398.73" stroke="hsl(226.5, 45.5%, 70.1%)" stroke-width="1.5"></path><path d="M1292.18 499.78L1449.59 501.05" stroke="hsl(226.5, 45.5%, 70.1%)" stroke-width="1.5"></path><path d="M1292.18 499.78L1260.09 671.29" stroke="hsl(226.5, 45.5%, 70.1%)" stroke-width="1.5"></path><path d="M1260.09 671.29L1260.09 671.29" stroke="hsl(226.5, 45.5%, 70.1%)" stroke-width="1.5"></path><path d="M1260.09 671.29L1390.85 699.38" stroke="hsl(226.5, 45.5%, 70.1%)" stroke-width="1.5"></path><path d="M1260.09 671.29L1100.78 693.16" stroke="hsl(226.5, 45.5%, 70.1%)" stroke-width="1.5"></path><path d="M1260.09 671.29L1112.98 549.51" stroke="hsl(226.5, 45.5%, 70.1%)" stroke-width="1.5"></path><path d="M1260.09 671.29L1449.59 501.05" stroke="hsl(226.5, 45.5%, 70.1%)" stroke-width="1.5"></path><path d="M1260.09 671.29L1259.45 401.37" stroke="hsl(226.5, 45.5%, 70.1%)" stroke-width="1.5"></path><path d="M1451.1 -109.13L1451.1 -109.13" stroke="hsl(226.5, 45.5%, 70.1%)" stroke-width="1.5"></path><path d="M1451.1 -109.13L1589.35 -73.6" stroke="hsl(226.5, 45.5%, 70.1%)" stroke-width="1.5"></path><path d="M1451.1 -109.13L1430.65 92.62" stroke="hsl(226.5, 45.5%, 70.1%)" stroke-width="1.5"></path><path d="M1451.1 -109.13L1597.9 63.66" stroke="hsl(226.5, 45.5%, 70.1%)" stroke-width="1.5"></path><path d="M1451.1 -109.13L1542.24 198.58" stroke="hsl(226.5, 45.5%, 70.1%)" stroke-width="1.5"></path><path d="M1430.65 92.62L1430.65 92.62" stroke="hsl(226.5, 45.5%, 70.1%)" stroke-width="1.5"></path><path d="M1430.65 92.62L1426.51 228.19" stroke="hsl(226.5, 45.5%, 70.1%)" stroke-width="1.5"></path><path d="M1430.65 92.62L1542.24 198.58" stroke="hsl(226.5, 45.5%, 70.1%)" stroke-width="1.5"></path><path d="M1426.51 228.19L1426.51 228.19" stroke="hsl(226.5, 45.5%, 70.1%)" stroke-width="1.5"></path><path d="M1426.51 228.19L1542.24 198.58" stroke="hsl(226.5, 45.5%, 70.1%)" stroke-width="1.5"></path><path d="M1426.51 228.19L1398.99 398.73" stroke="hsl(226.5, 45.5%, 70.1%)" stroke-width="1.5"></path><path d="M1398.99 398.73L1398.99 398.73" stroke="hsl(226.5, 45.5%, 70.1%)" stroke-width="1.5"></path><path d="M1398.99 398.73L1449.59 501.05" stroke="hsl(226.5, 45.5%, 70.1%)" stroke-width="1.5"></path><path d="M1449.59 501.05L1449.59 501.05" stroke="hsl(226.5, 45.5%, 70.1%)" stroke-width="1.5"></path><path d="M1449.59 501.05L1573.16 502.71" stroke="hsl(226.5, 45.5%, 70.1%)" stroke-width="1.5"></path><path d="M1390.85 699.38L1390.85 699.38" stroke="hsl(226.5, 45.5%, 70.1%)" stroke-width="1.5"></path><path d="M1390.85 699.38L1449.59 501.05" stroke="hsl(226.5, 45.5%, 70.1%)" stroke-width="1.5"></path><path d="M1390.85 699.38L1292.18 499.78" stroke="hsl(226.5, 45.5%, 70.1%)" stroke-width="1.5"></path><path d="M1589.35 -73.6L1589.35 -73.6" stroke="hsl(226.5, 45.5%, 70.1%)" stroke-width="1.5"></path><path d="M1589.35 -73.6L1597.9 63.66" stroke="hsl(226.5, 45.5%, 70.1%)" stroke-width="1.5"></path><path d="M1589.35 -73.6L1430.65 92.62" stroke="hsl(226.5, 45.5%, 70.1%)" stroke-width="1.5"></path><path d="M1589.35 -73.6L1542.24 198.58" stroke="hsl(226.5, 45.5%, 70.1%)" stroke-width="1.5"></path><path d="M1589.35 -73.6L1310.66 -85.58" stroke="hsl(226.5, 45.5%, 70.1%)" stroke-width="1.5"></path><path d="M1597.9 63.66L1597.9 63.66" stroke="hsl(226.5, 45.5%, 70.1%)" stroke-width="1.5"></path><path d="M1597.9 63.66L1542.24 198.58" stroke="hsl(226.5, 45.5%, 70.1%)" stroke-width="1.5"></path><path d="M1597.9 63.66L1430.65 92.62" stroke="hsl(226.5, 45.5%, 70.1%)" stroke-width="1.5"></path><path d="M1542.24 198.58L1542.24 198.58" stroke="hsl(226.5, 45.5%, 70.1%)" stroke-width="1.5"></path><path d="M1542.24 198.58L1570.84 397.51" stroke="hsl(226.5, 45.5%, 70.1%)" stroke-width="1.5"></path><path d="M1542.24 198.58L1398.99 398.73" stroke="hsl(226.5, 45.5%, 70.1%)" stroke-width="1.5"></path><path d="M1570.84 397.51L1570.84 397.51" stroke="hsl(226.5, 45.5%, 70.1%)" stroke-width="1.5"></path><path d="M1570.84 397.51L1573.16 502.71" stroke="hsl(226.5, 45.5%, 70.1%)" stroke-width="1.5"></path><path d="M1570.84 397.51L1449.59 501.05" stroke="hsl(226.5, 45.5%, 70.1%)" stroke-width="1.5"></path><path d="M1570.84 397.51L1398.99 398.73" stroke="hsl(226.5, 45.5%, 70.1%)" stroke-width="1.5"></path><path d="M1570.84 397.51L1426.51 228.19" stroke="hsl(226.5, 45.5%, 70.1%)" stroke-width="1.5"></path><path d="M1570.84 397.51L1292.18 499.78" stroke="hsl(226.5, 45.5%, 70.1%)" stroke-width="1.5"></path><path d="M1573.16 502.71L1573.16 502.71" stroke="hsl(226.5, 45.5%, 70.1%)" stroke-width="1.5"></path><path d="M1573.16 502.71L1398.99 398.73" stroke="hsl(226.5, 45.5%, 70.1%)" stroke-width="1.5"></path><circle r="25" cx="262.36" cy="688.45" fill="url(&quot;#SvgjsRadialGradient1033&quot;)"></circle><circle r="25" cx="522.49" cy="512.43" fill="url(&quot;#SvgjsRadialGradient1033&quot;)"></circle><circle r="25" cx="1006.46" cy="360.64" fill="url(&quot;#SvgjsRadialGradient1033&quot;)"></circle><circle r="25" cx="939.13" cy="548.44" fill="url(&quot;#SvgjsRadialGradient1033&quot;)"></circle><circle r="25" cx="1575.91" cy="705.6" fill="url(&quot;#SvgjsRadialGradient1033&quot;)"></circle><circle r="5" cx="-98.81" cy="528.95" fill="#aab6df"></circle><circle r="5" cx="-103.37" cy="644.03" fill="#aab6df"></circle><circle r="5" cx="66.06" cy="507.11" fill="#aab6df"></circle><circle r="5" cx="38.13" cy="688.06" fill="#aab6df"></circle><circle r="5" cx="254.96" cy="528.67" fill="#aab6df"></circle><circle r="5" cx="360.06" cy="507.82" fill="#aab6df"></circle><circle r="5" cx="354.17" cy="687.28" fill="#aab6df"></circle><circle r="5" cx="539.8" cy="400.52" fill="#aab6df"></circle><circle r="5" cx="555.16" cy="707.65" fill="#aab6df"></circle><circle r="5" cx="656.61" cy="520.39" fill="#aab6df"></circle><circle r="5" cx="641.54" cy="667.27" fill="#aab6df"></circle><circle r="5" cx="850.6" cy="526.66" fill="#aab6df"></circle><circle r="5" cx="842.89" cy="670.84" fill="#aab6df"></circle><circle r="5" cx="953.87" cy="698.54" fill="#aab6df"></circle><circle r="5" cx="1144.45" cy="58.65" fill="#aab6df"></circle><circle r="5" cx="1089.39" cy="236.11" fill="#aab6df"></circle><circle r="5" cx="1150.7" cy="388.05" fill="#aab6df"></circle><circle r="5" cx="1112.98" cy="549.51" fill="#aab6df"></circle><circle r="5" cx="1100.78" cy="693.16" fill="#aab6df"></circle><circle r="5" cx="1310.66" cy="-85.58" fill="#aab6df"></circle><circle r="5" cx="1308.93" cy="53.91" fill="#aab6df"></circle><circle r="5" cx="1242.97" cy="240.98" fill="#aab6df"></circle><circle r="5" cx="1259.45" cy="401.37" fill="#aab6df"></circle><circle r="5" cx="1292.18" cy="499.78" fill="#aab6df"></circle><circle r="5" cx="1260.09" cy="671.29" fill="#aab6df"></circle><circle r="5" cx="1451.1" cy="-109.13" fill="#aab6df"></circle><circle r="5" cx="1430.65" cy="92.62" fill="#aab6df"></circle><circle r="5" cx="1426.51" cy="228.19" fill="#aab6df"></circle><circle r="5" cx="1398.99" cy="398.73" fill="#aab6df"></circle><circle r="5" cx="1449.59" cy="501.05" fill="#aab6df"></circle><circle r="5" cx="1390.85" cy="699.38" fill="#aab6df"></circle><circle r="5" cx="1589.35" cy="-73.6" fill="#aab6df"></circle><circle r="5" cx="1597.9" cy="63.66" fill="#aab6df"></circle><circle r="5" cx="1542.24" cy="198.58" fill="#aab6df"></circle><circle r="5" cx="1570.84" cy="397.51" fill="#aab6df"></circle><circle r="5" cx="1573.16" cy="502.71" fill="#aab6df"></circle></g><defs><mask id="SvgjsMask1031"><rect width="1440" height="560" fill="#ffffff"></rect></mask><linearGradient x1="15.28%" y1="-39.29%" x2="84.72%" y2="139.29%" gradientUnits="userSpaceOnUse" id="SvgjsLinearGradient1032"><stop stop-color="#0e2a47" offset="0"></stop><stop stop-color="rgba(0, 69, 158, 1)" offset="1"></stop></linearGradient><radialGradient id="SvgjsRadialGradient1033"><stop stop-color="#ffffff" offset="0.1"></stop><stop stop-color="rgba(84, 108, 191, 1)" offset="0.2"></stop><stop stop-color="rgba(84, 108, 191, 0)" offset="1"></stop></radialGradient></defs></svg>